<mxfile host="app.diagrams.net" modified="2020-11-27T03:21:56.350Z" agent="5.0 (Windows NT 10.0; Win64; x64) AppleWebKit/537.36 (KHTML, like Gecko) Chrome/87.0.4280.66 Safari/537.36" etag="iZRPQ8cOBVrKMEXELLJ2" version="13.10.4" type="github" pages="5">
  <diagram id="AiVFg1ysWfB2jF8u1klc" name="Page-1">
    <mxGraphModel dx="1157" dy="600" grid="1" gridSize="10" guides="1" tooltips="1" connect="1" arrows="1" fold="1" page="1" pageScale="1" pageWidth="827" pageHeight="1169" math="0" shadow="0">
      <root>
        <mxCell id="0" />
        <mxCell id="1" parent="0" />
        <mxCell id="MxUPo3ukdLpDliOIxOij-1" value="ENFERMEIRO" style="swimlane;fontStyle=0;childLayout=stackLayout;horizontal=1;startSize=26;fillColor=none;horizontalStack=0;resizeParent=1;resizeParentMax=0;resizeLast=0;collapsible=1;marginBottom=0;" parent="1" vertex="1">
          <mxGeometry x="220" y="180" width="140" height="78" as="geometry" />
        </mxCell>
        <mxCell id="MxUPo3ukdLpDliOIxOij-2" value="COREN" style="text;strokeColor=none;fillColor=none;align=left;verticalAlign=top;spacingLeft=4;spacingRight=4;overflow=hidden;rotatable=0;points=[[0,0.5],[1,0.5]];portConstraint=eastwest;" parent="MxUPo3ukdLpDliOIxOij-1" vertex="1">
          <mxGeometry y="26" width="140" height="26" as="geometry" />
        </mxCell>
        <mxCell id="MxUPo3ukdLpDliOIxOij-3" value="Nome" style="text;strokeColor=none;fillColor=none;align=left;verticalAlign=top;spacingLeft=4;spacingRight=4;overflow=hidden;rotatable=0;points=[[0,0.5],[1,0.5]];portConstraint=eastwest;" parent="MxUPo3ukdLpDliOIxOij-1" vertex="1">
          <mxGeometry y="52" width="140" height="26" as="geometry" />
        </mxCell>
        <mxCell id="MxUPo3ukdLpDliOIxOij-5" value="MEDICO" style="swimlane;fontStyle=0;childLayout=stackLayout;horizontal=1;startSize=26;horizontalStack=0;resizeParent=1;resizeParentMax=0;resizeLast=0;collapsible=1;marginBottom=0;" parent="1" vertex="1">
          <mxGeometry x="20" y="340" width="140" height="104" as="geometry" />
        </mxCell>
        <mxCell id="MxUPo3ukdLpDliOIxOij-6" value="CRM" style="text;strokeColor=none;fillColor=none;align=left;verticalAlign=top;spacingLeft=4;spacingRight=4;overflow=hidden;rotatable=0;points=[[0,0.5],[1,0.5]];portConstraint=eastwest;" parent="MxUPo3ukdLpDliOIxOij-5" vertex="1">
          <mxGeometry y="26" width="140" height="26" as="geometry" />
        </mxCell>
        <mxCell id="MxUPo3ukdLpDliOIxOij-7" value="Nome" style="text;strokeColor=none;fillColor=none;align=left;verticalAlign=top;spacingLeft=4;spacingRight=4;overflow=hidden;rotatable=0;points=[[0,0.5],[1,0.5]];portConstraint=eastwest;" parent="MxUPo3ukdLpDliOIxOij-5" vertex="1">
          <mxGeometry y="52" width="140" height="26" as="geometry" />
        </mxCell>
        <mxCell id="MxUPo3ukdLpDliOIxOij-8" value="Especialidade" style="text;strokeColor=none;fillColor=none;align=left;verticalAlign=top;spacingLeft=4;spacingRight=4;overflow=hidden;rotatable=0;points=[[0,0.5],[1,0.5]];portConstraint=eastwest;" parent="MxUPo3ukdLpDliOIxOij-5" vertex="1">
          <mxGeometry y="78" width="140" height="26" as="geometry" />
        </mxCell>
        <mxCell id="MxUPo3ukdLpDliOIxOij-9" value="PACIENTE" style="swimlane;fontStyle=0;childLayout=stackLayout;horizontal=1;startSize=26;horizontalStack=0;resizeParent=1;resizeParentMax=0;resizeLast=0;collapsible=1;marginBottom=0;" parent="1" vertex="1">
          <mxGeometry x="540" y="306" width="140" height="104" as="geometry" />
        </mxCell>
        <mxCell id="MxUPo3ukdLpDliOIxOij-10" value="CPF" style="text;strokeColor=none;fillColor=none;align=left;verticalAlign=top;spacingLeft=4;spacingRight=4;overflow=hidden;rotatable=0;points=[[0,0.5],[1,0.5]];portConstraint=eastwest;" parent="MxUPo3ukdLpDliOIxOij-9" vertex="1">
          <mxGeometry y="26" width="140" height="26" as="geometry" />
        </mxCell>
        <mxCell id="MxUPo3ukdLpDliOIxOij-11" value="Nome" style="text;strokeColor=none;fillColor=none;align=left;verticalAlign=top;spacingLeft=4;spacingRight=4;overflow=hidden;rotatable=0;points=[[0,0.5],[1,0.5]];portConstraint=eastwest;" parent="MxUPo3ukdLpDliOIxOij-9" vertex="1">
          <mxGeometry y="52" width="140" height="26" as="geometry" />
        </mxCell>
        <mxCell id="MxUPo3ukdLpDliOIxOij-12" value="Telefone" style="text;strokeColor=none;fillColor=none;align=left;verticalAlign=top;spacingLeft=4;spacingRight=4;overflow=hidden;rotatable=0;points=[[0,0.5],[1,0.5]];portConstraint=eastwest;" parent="MxUPo3ukdLpDliOIxOij-9" vertex="1">
          <mxGeometry y="78" width="140" height="26" as="geometry" />
        </mxCell>
        <mxCell id="MxUPo3ukdLpDliOIxOij-13" value="QUARTO" style="swimlane;fontStyle=0;childLayout=stackLayout;horizontal=1;startSize=26;horizontalStack=0;resizeParent=1;resizeParentMax=0;resizeLast=0;collapsible=1;marginBottom=0;" parent="1" vertex="1">
          <mxGeometry x="280" y="520" width="140" height="78" as="geometry" />
        </mxCell>
        <mxCell id="MxUPo3ukdLpDliOIxOij-14" value="Número" style="text;strokeColor=none;fillColor=none;align=left;verticalAlign=top;spacingLeft=4;spacingRight=4;overflow=hidden;rotatable=0;points=[[0,0.5],[1,0.5]];portConstraint=eastwest;" parent="MxUPo3ukdLpDliOIxOij-13" vertex="1">
          <mxGeometry y="26" width="140" height="26" as="geometry" />
        </mxCell>
        <mxCell id="MxUPo3ukdLpDliOIxOij-15" value="Andar" style="text;strokeColor=none;fillColor=none;align=left;verticalAlign=top;spacingLeft=4;spacingRight=4;overflow=hidden;rotatable=0;points=[[0,0.5],[1,0.5]];portConstraint=eastwest;" parent="MxUPo3ukdLpDliOIxOij-13" vertex="1">
          <mxGeometry y="52" width="140" height="26" as="geometry" />
        </mxCell>
        <mxCell id="MxUPo3ukdLpDliOIxOij-21" style="shape=link;rounded=0;orthogonalLoop=1;jettySize=auto;html=1;exitX=1;exitY=0.5;exitDx=0;exitDy=0;entryX=0;entryY=0.5;entryDx=0;entryDy=0;strokeWidth=1;" parent="1" source="MxUPo3ukdLpDliOIxOij-2" target="MxUPo3ukdLpDliOIxOij-10" edge="1">
          <mxGeometry relative="1" as="geometry" />
        </mxCell>
        <mxCell id="MxUPo3ukdLpDliOIxOij-22" value="Responsável" style="edgeLabel;html=1;align=center;verticalAlign=middle;resizable=0;points=[];fontSize=12;" parent="MxUPo3ukdLpDliOIxOij-21" vertex="1" connectable="0">
          <mxGeometry x="0.5705" y="1" relative="1" as="geometry">
            <mxPoint x="-52.3" y="-37.39" as="offset" />
          </mxGeometry>
        </mxCell>
        <mxCell id="MxUPo3ukdLpDliOIxOij-30" style="edgeStyle=none;shape=link;rounded=0;orthogonalLoop=1;jettySize=auto;html=1;exitX=1;exitY=0.5;exitDx=0;exitDy=0;strokeWidth=1;strokeColor=#000000;" parent="1" source="MxUPo3ukdLpDliOIxOij-6" edge="1">
          <mxGeometry relative="1" as="geometry">
            <mxPoint x="540" y="379" as="targetPoint" />
          </mxGeometry>
        </mxCell>
        <mxCell id="MxUPo3ukdLpDliOIxOij-31" value="Trata" style="edgeLabel;html=1;align=center;verticalAlign=middle;resizable=0;points=[];fontSize=15;" parent="MxUPo3ukdLpDliOIxOij-30" vertex="1" connectable="0">
          <mxGeometry x="-0.0632" y="-4" relative="1" as="geometry">
            <mxPoint y="-4" as="offset" />
          </mxGeometry>
        </mxCell>
        <mxCell id="MxUPo3ukdLpDliOIxOij-32" style="edgeStyle=none;shape=link;rounded=0;orthogonalLoop=1;jettySize=auto;html=1;exitX=0;exitY=0.5;exitDx=0;exitDy=0;entryX=1;entryY=0.25;entryDx=0;entryDy=0;strokeWidth=1;fontSize=12;strokeColor=#000000;" parent="1" source="MxUPo3ukdLpDliOIxOij-12" target="MxUPo3ukdLpDliOIxOij-13" edge="1">
          <mxGeometry relative="1" as="geometry">
            <Array as="points">
              <mxPoint x="480" y="470" />
            </Array>
          </mxGeometry>
        </mxCell>
        <mxCell id="MxUPo3ukdLpDliOIxOij-34" value="Interna" style="edgeLabel;html=1;align=center;verticalAlign=middle;resizable=0;points=[];fontSize=15;" parent="1" vertex="1" connectable="0">
          <mxGeometry x="470" y="470" as="geometry" />
        </mxCell>
        <mxCell id="MxUPo3ukdLpDliOIxOij-35" value="Modelo conceitual: SALA UTI" style="edgeLabel;html=1;align=center;verticalAlign=middle;resizable=0;points=[];fontSize=15;" parent="1" vertex="1" connectable="0">
          <mxGeometry x="100" y="160" as="geometry" />
        </mxCell>
        <mxCell id="PbW92dkkdYsMiQ78eNoE-1" value="MATRÍCULA: 2016103294 - Francisco Antonio Guilherme do Nascimento" style="shape=partialRectangle;html=1;top=1;align=left;dashed=1;fontSize=12;" vertex="1" parent="1">
          <mxGeometry y="40" width="200" height="20" as="geometry" />
        </mxCell>
      </root>
    </mxGraphModel>
  </diagram>
  <diagram id="5bnsnaNeRtGaSbweDTIP" name="Page-2">
    <mxGraphModel dx="1157" dy="600" grid="1" gridSize="10" guides="1" tooltips="1" connect="1" arrows="1" fold="1" page="1" pageScale="1" pageWidth="827" pageHeight="1169" math="0" shadow="0">
      <root>
        <mxCell id="caV-d8_0YchQeiHyZHQP-0" />
        <mxCell id="caV-d8_0YchQeiHyZHQP-1" parent="caV-d8_0YchQeiHyZHQP-0" />
        <mxCell id="TNwt2qRVkTbvnSPUJIH6-4" value="DIAGRAMA DE SEQUENCIA: CADASTRAR PACIENTE" style="text;align=center;fontStyle=1;verticalAlign=middle;spacingLeft=3;spacingRight=3;strokeColor=none;rotatable=0;points=[[0,0.5],[1,0.5]];portConstraint=eastwest;fontSize=12;" parent="caV-d8_0YchQeiHyZHQP-1" vertex="1">
          <mxGeometry y="20" width="820" height="26" as="geometry" />
        </mxCell>
        <mxCell id="TNwt2qRVkTbvnSPUJIH6-9" value="&lt;div&gt;&lt;span&gt;ENFERMEIRO&lt;/span&gt;&lt;/div&gt;" style="shape=umlLifeline;participant=umlActor;perimeter=lifelinePerimeter;whiteSpace=wrap;html=1;container=1;collapsible=0;recursiveResize=0;verticalAlign=top;spacingTop=36;outlineConnect=0;fontSize=12;align=center;" parent="caV-d8_0YchQeiHyZHQP-1" vertex="1">
          <mxGeometry x="70" y="80" width="20" height="360" as="geometry" />
        </mxCell>
        <mxCell id="TNwt2qRVkTbvnSPUJIH6-10" value="" style="html=1;points=[];perimeter=orthogonalPerimeter;fontSize=12;align=center;" parent="TNwt2qRVkTbvnSPUJIH6-9" vertex="1">
          <mxGeometry x="5" y="60" width="10" height="240" as="geometry" />
        </mxCell>
        <mxCell id="TNwt2qRVkTbvnSPUJIH6-11" value="Cadastro de paciente" style="shape=umlLifeline;perimeter=lifelinePerimeter;whiteSpace=wrap;html=1;container=1;collapsible=0;recursiveResize=0;outlineConnect=0;fontSize=12;align=center;" parent="caV-d8_0YchQeiHyZHQP-1" vertex="1">
          <mxGeometry x="270" y="80" width="100" height="360" as="geometry" />
        </mxCell>
        <mxCell id="TNwt2qRVkTbvnSPUJIH6-12" value="Componente de negócio" style="shape=umlLifeline;perimeter=lifelinePerimeter;whiteSpace=wrap;html=1;container=1;collapsible=0;recursiveResize=0;outlineConnect=0;fontSize=12;align=center;" parent="caV-d8_0YchQeiHyZHQP-1" vertex="1">
          <mxGeometry x="590" y="80" width="100" height="360" as="geometry" />
        </mxCell>
        <mxCell id="TNwt2qRVkTbvnSPUJIH6-20" value="" style="html=1;points=[];perimeter=orthogonalPerimeter;fontSize=12;align=center;" parent="TNwt2qRVkTbvnSPUJIH6-12" vertex="1">
          <mxGeometry x="45" y="80" width="10" height="80" as="geometry" />
        </mxCell>
        <mxCell id="TNwt2qRVkTbvnSPUJIH6-33" value="" style="html=1;points=[];perimeter=orthogonalPerimeter;fontSize=12;align=center;" parent="TNwt2qRVkTbvnSPUJIH6-12" vertex="1">
          <mxGeometry x="45" y="200" width="10" height="80" as="geometry" />
        </mxCell>
        <mxCell id="TNwt2qRVkTbvnSPUJIH6-13" value="Banco de dados" style="shape=umlLifeline;perimeter=lifelinePerimeter;whiteSpace=wrap;html=1;container=1;collapsible=0;recursiveResize=0;outlineConnect=0;fontSize=12;align=center;" parent="caV-d8_0YchQeiHyZHQP-1" vertex="1">
          <mxGeometry x="910" y="80" width="100" height="360" as="geometry" />
        </mxCell>
        <mxCell id="TNwt2qRVkTbvnSPUJIH6-27" value="" style="html=1;points=[];perimeter=orthogonalPerimeter;fontSize=12;align=center;" parent="TNwt2qRVkTbvnSPUJIH6-13" vertex="1">
          <mxGeometry x="45" y="90" width="10" height="60" as="geometry" />
        </mxCell>
        <mxCell id="Ic2hNNy2VulXKQ851wfX-0" value="" style="html=1;points=[];perimeter=orthogonalPerimeter;fontSize=12;align=center;" parent="TNwt2qRVkTbvnSPUJIH6-13" vertex="1">
          <mxGeometry x="45" y="210" width="10" height="60" as="geometry" />
        </mxCell>
        <mxCell id="TNwt2qRVkTbvnSPUJIH6-17" value="" style="html=1;points=[];perimeter=orthogonalPerimeter;fontSize=12;align=center;" parent="caV-d8_0YchQeiHyZHQP-1" vertex="1">
          <mxGeometry x="315" y="140" width="10" height="240" as="geometry" />
        </mxCell>
        <mxCell id="TNwt2qRVkTbvnSPUJIH6-18" value="Incluir dados cadastrais()" style="html=1;verticalAlign=bottom;endArrow=block;entryX=0;entryY=0;strokeColor=#000000;strokeWidth=1;fontSize=12;" parent="caV-d8_0YchQeiHyZHQP-1" target="TNwt2qRVkTbvnSPUJIH6-17" edge="1">
          <mxGeometry relative="1" as="geometry">
            <mxPoint x="90" y="140" as="sourcePoint" />
          </mxGeometry>
        </mxCell>
        <mxCell id="TNwt2qRVkTbvnSPUJIH6-19" value="" style="html=1;verticalAlign=bottom;endArrow=open;dashed=1;endSize=8;exitX=0;exitY=0.95;strokeColor=#000000;strokeWidth=1;fontSize=12;entryX=1;entryY=0.958;entryDx=0;entryDy=0;entryPerimeter=0;" parent="caV-d8_0YchQeiHyZHQP-1" source="TNwt2qRVkTbvnSPUJIH6-17" target="TNwt2qRVkTbvnSPUJIH6-10" edge="1">
          <mxGeometry relative="1" as="geometry">
            <mxPoint x="90" y="216" as="targetPoint" />
          </mxGeometry>
        </mxCell>
        <mxCell id="TNwt2qRVkTbvnSPUJIH6-21" value="Valida se paciente existe()" style="html=1;verticalAlign=bottom;endArrow=block;entryX=0;entryY=0;strokeColor=#000000;strokeWidth=1;fontSize=12;" parent="caV-d8_0YchQeiHyZHQP-1" target="TNwt2qRVkTbvnSPUJIH6-20" edge="1">
          <mxGeometry relative="1" as="geometry">
            <mxPoint x="325" y="160" as="sourcePoint" />
          </mxGeometry>
        </mxCell>
        <mxCell id="TNwt2qRVkTbvnSPUJIH6-22" value="" style="html=1;verticalAlign=bottom;endArrow=open;dashed=1;endSize=8;exitX=0;exitY=0.95;strokeColor=#000000;strokeWidth=1;fontSize=12;" parent="caV-d8_0YchQeiHyZHQP-1" source="TNwt2qRVkTbvnSPUJIH6-20" edge="1">
          <mxGeometry relative="1" as="geometry">
            <mxPoint x="325" y="236" as="targetPoint" />
          </mxGeometry>
        </mxCell>
        <mxCell id="TNwt2qRVkTbvnSPUJIH6-28" value="Checa se já existe no banco de dados()" style="html=1;verticalAlign=bottom;endArrow=block;entryX=0;entryY=0;strokeColor=#000000;strokeWidth=1;fontSize=12;" parent="caV-d8_0YchQeiHyZHQP-1" target="TNwt2qRVkTbvnSPUJIH6-27" edge="1">
          <mxGeometry relative="1" as="geometry">
            <mxPoint x="650" y="170" as="sourcePoint" />
          </mxGeometry>
        </mxCell>
        <mxCell id="TNwt2qRVkTbvnSPUJIH6-29" value="Paciente não existe()" style="html=1;verticalAlign=bottom;endArrow=open;dashed=1;endSize=8;exitX=0;exitY=0.95;strokeColor=#000000;strokeWidth=1;fontSize=12;" parent="caV-d8_0YchQeiHyZHQP-1" source="TNwt2qRVkTbvnSPUJIH6-27" target="TNwt2qRVkTbvnSPUJIH6-12" edge="1">
          <mxGeometry relative="1" as="geometry">
            <mxPoint x="650" y="246" as="targetPoint" />
          </mxGeometry>
        </mxCell>
        <mxCell id="TNwt2qRVkTbvnSPUJIH6-34" value="Grava dados do paciente()" style="html=1;verticalAlign=bottom;endArrow=block;entryX=0;entryY=0;strokeColor=#000000;strokeWidth=1;fontSize=12;" parent="caV-d8_0YchQeiHyZHQP-1" target="TNwt2qRVkTbvnSPUJIH6-33" edge="1">
          <mxGeometry relative="1" as="geometry">
            <mxPoint x="325" y="280" as="sourcePoint" />
          </mxGeometry>
        </mxCell>
        <mxCell id="TNwt2qRVkTbvnSPUJIH6-35" value="" style="html=1;verticalAlign=bottom;endArrow=open;dashed=1;endSize=8;exitX=0;exitY=0.95;strokeColor=#000000;strokeWidth=1;fontSize=12;" parent="caV-d8_0YchQeiHyZHQP-1" source="TNwt2qRVkTbvnSPUJIH6-33" edge="1">
          <mxGeometry relative="1" as="geometry">
            <mxPoint x="325" y="356" as="targetPoint" />
          </mxGeometry>
        </mxCell>
        <mxCell id="Ic2hNNy2VulXKQ851wfX-1" value="Insere dados do paciente no banco de dados()" style="html=1;verticalAlign=bottom;endArrow=block;entryX=0;entryY=0;strokeColor=#000000;strokeWidth=1;fontSize=12;" parent="caV-d8_0YchQeiHyZHQP-1" target="Ic2hNNy2VulXKQ851wfX-0" edge="1">
          <mxGeometry relative="1" as="geometry">
            <mxPoint x="640" y="290" as="sourcePoint" />
          </mxGeometry>
        </mxCell>
        <mxCell id="Ic2hNNy2VulXKQ851wfX-2" value="" style="html=1;verticalAlign=bottom;endArrow=open;dashed=1;endSize=8;strokeColor=#000000;strokeWidth=1;fontSize=12;entryX=1;entryY=0.888;entryDx=0;entryDy=0;entryPerimeter=0;" parent="caV-d8_0YchQeiHyZHQP-1" source="Ic2hNNy2VulXKQ851wfX-0" target="TNwt2qRVkTbvnSPUJIH6-33" edge="1">
          <mxGeometry relative="1" as="geometry">
            <mxPoint x="640" y="366" as="targetPoint" />
          </mxGeometry>
        </mxCell>
      </root>
    </mxGraphModel>
  </diagram>
  <diagram id="WZjQ4D9CtdMFKgMpC_RG" name="Page-3">
    <mxGraphModel dx="868" dy="450" grid="1" gridSize="10" guides="1" tooltips="1" connect="1" arrows="1" fold="1" page="1" pageScale="1" pageWidth="827" pageHeight="1169" math="0" shadow="0">
      <root>
        <mxCell id="2pkQNexUgDLmCOCCGRxP-0" />
        <mxCell id="2pkQNexUgDLmCOCCGRxP-1" parent="2pkQNexUgDLmCOCCGRxP-0" />
        <mxCell id="2pkQNexUgDLmCOCCGRxP-23" value="DIAGRAMA DE SEQUENCIA: INERNAR PACIENTE EM QUARTO UTI" style="text;align=center;fontStyle=1;verticalAlign=middle;spacingLeft=3;spacingRight=3;strokeColor=none;rotatable=0;points=[[0,0.5],[1,0.5]];portConstraint=eastwest;fontSize=12;" vertex="1" parent="2pkQNexUgDLmCOCCGRxP-1">
          <mxGeometry width="820" height="26" as="geometry" />
        </mxCell>
        <mxCell id="2pkQNexUgDLmCOCCGRxP-24" value="&lt;div&gt;&lt;span&gt;MEDICO&lt;/span&gt;&lt;/div&gt;" style="shape=umlLifeline;participant=umlActor;perimeter=lifelinePerimeter;whiteSpace=wrap;html=1;container=1;collapsible=0;recursiveResize=0;verticalAlign=top;spacingTop=36;outlineConnect=0;fontSize=12;align=center;" vertex="1" parent="2pkQNexUgDLmCOCCGRxP-1">
          <mxGeometry x="70" y="60" width="20" height="360" as="geometry" />
        </mxCell>
        <mxCell id="2pkQNexUgDLmCOCCGRxP-25" value="" style="html=1;points=[];perimeter=orthogonalPerimeter;fontSize=12;align=center;" vertex="1" parent="2pkQNexUgDLmCOCCGRxP-24">
          <mxGeometry x="5" y="60" width="10" height="240" as="geometry" />
        </mxCell>
        <mxCell id="2pkQNexUgDLmCOCCGRxP-26" value="Internaçao UTI" style="shape=umlLifeline;perimeter=lifelinePerimeter;whiteSpace=wrap;html=1;container=1;collapsible=0;recursiveResize=0;outlineConnect=0;fontSize=12;align=center;" vertex="1" parent="2pkQNexUgDLmCOCCGRxP-1">
          <mxGeometry x="270" y="60" width="100" height="360" as="geometry" />
        </mxCell>
        <mxCell id="2pkQNexUgDLmCOCCGRxP-27" value="Componente de negócio" style="shape=umlLifeline;perimeter=lifelinePerimeter;whiteSpace=wrap;html=1;container=1;collapsible=0;recursiveResize=0;outlineConnect=0;fontSize=12;align=center;" vertex="1" parent="2pkQNexUgDLmCOCCGRxP-1">
          <mxGeometry x="590" y="60" width="100" height="360" as="geometry" />
        </mxCell>
        <mxCell id="2pkQNexUgDLmCOCCGRxP-28" value="" style="html=1;points=[];perimeter=orthogonalPerimeter;fontSize=12;align=center;" vertex="1" parent="2pkQNexUgDLmCOCCGRxP-27">
          <mxGeometry x="45" y="80" width="10" height="80" as="geometry" />
        </mxCell>
        <mxCell id="2pkQNexUgDLmCOCCGRxP-29" value="" style="html=1;points=[];perimeter=orthogonalPerimeter;fontSize=12;align=center;" vertex="1" parent="2pkQNexUgDLmCOCCGRxP-27">
          <mxGeometry x="45" y="200" width="10" height="80" as="geometry" />
        </mxCell>
        <mxCell id="2pkQNexUgDLmCOCCGRxP-30" value="Sistema de quartos" style="shape=umlLifeline;perimeter=lifelinePerimeter;whiteSpace=wrap;html=1;container=1;collapsible=0;recursiveResize=0;outlineConnect=0;fontSize=12;align=center;" vertex="1" parent="2pkQNexUgDLmCOCCGRxP-1">
          <mxGeometry x="910" y="60" width="100" height="360" as="geometry" />
        </mxCell>
        <mxCell id="2pkQNexUgDLmCOCCGRxP-31" value="" style="html=1;points=[];perimeter=orthogonalPerimeter;fontSize=12;align=center;" vertex="1" parent="2pkQNexUgDLmCOCCGRxP-30">
          <mxGeometry x="45" y="90" width="10" height="60" as="geometry" />
        </mxCell>
        <mxCell id="2pkQNexUgDLmCOCCGRxP-32" value="" style="html=1;points=[];perimeter=orthogonalPerimeter;fontSize=12;align=center;" vertex="1" parent="2pkQNexUgDLmCOCCGRxP-30">
          <mxGeometry x="45" y="210" width="10" height="60" as="geometry" />
        </mxCell>
        <mxCell id="2pkQNexUgDLmCOCCGRxP-33" value="" style="html=1;points=[];perimeter=orthogonalPerimeter;fontSize=12;align=center;" vertex="1" parent="2pkQNexUgDLmCOCCGRxP-1">
          <mxGeometry x="315" y="120" width="10" height="240" as="geometry" />
        </mxCell>
        <mxCell id="2pkQNexUgDLmCOCCGRxP-34" value="Incluir dados do paciente()()" style="html=1;verticalAlign=bottom;endArrow=block;entryX=0;entryY=0;strokeColor=#000000;strokeWidth=1;fontSize=12;" edge="1" parent="2pkQNexUgDLmCOCCGRxP-1" target="2pkQNexUgDLmCOCCGRxP-33">
          <mxGeometry relative="1" as="geometry">
            <mxPoint x="90" y="120" as="sourcePoint" />
          </mxGeometry>
        </mxCell>
        <mxCell id="2pkQNexUgDLmCOCCGRxP-35" value="" style="html=1;verticalAlign=bottom;endArrow=open;dashed=1;endSize=8;exitX=0;exitY=0.95;strokeColor=#000000;strokeWidth=1;fontSize=12;entryX=1;entryY=0.958;entryDx=0;entryDy=0;entryPerimeter=0;" edge="1" parent="2pkQNexUgDLmCOCCGRxP-1" source="2pkQNexUgDLmCOCCGRxP-33" target="2pkQNexUgDLmCOCCGRxP-25">
          <mxGeometry relative="1" as="geometry">
            <mxPoint x="90" y="196" as="targetPoint" />
          </mxGeometry>
        </mxCell>
        <mxCell id="2pkQNexUgDLmCOCCGRxP-36" value="Valida existe quarto UTI disponivel()" style="html=1;verticalAlign=bottom;endArrow=block;entryX=0;entryY=0;strokeColor=#000000;strokeWidth=1;fontSize=12;" edge="1" parent="2pkQNexUgDLmCOCCGRxP-1" target="2pkQNexUgDLmCOCCGRxP-28">
          <mxGeometry relative="1" as="geometry">
            <mxPoint x="325" y="140" as="sourcePoint" />
          </mxGeometry>
        </mxCell>
        <mxCell id="2pkQNexUgDLmCOCCGRxP-37" value="" style="html=1;verticalAlign=bottom;endArrow=open;dashed=1;endSize=8;exitX=0;exitY=0.95;strokeColor=#000000;strokeWidth=1;fontSize=12;" edge="1" parent="2pkQNexUgDLmCOCCGRxP-1" source="2pkQNexUgDLmCOCCGRxP-28">
          <mxGeometry relative="1" as="geometry">
            <mxPoint x="325" y="216" as="targetPoint" />
          </mxGeometry>
        </mxCell>
        <mxCell id="2pkQNexUgDLmCOCCGRxP-38" value="Checa se UTI disponível para internação()" style="html=1;verticalAlign=bottom;endArrow=block;entryX=0;entryY=0;strokeColor=#000000;strokeWidth=1;fontSize=12;" edge="1" parent="2pkQNexUgDLmCOCCGRxP-1" target="2pkQNexUgDLmCOCCGRxP-31">
          <mxGeometry relative="1" as="geometry">
            <mxPoint x="650" y="150" as="sourcePoint" />
          </mxGeometry>
        </mxCell>
        <mxCell id="2pkQNexUgDLmCOCCGRxP-39" value="UTI não disponível()" style="html=1;verticalAlign=bottom;endArrow=open;dashed=1;endSize=8;exitX=0;exitY=0.95;strokeColor=#000000;strokeWidth=1;fontSize=12;" edge="1" parent="2pkQNexUgDLmCOCCGRxP-1" source="2pkQNexUgDLmCOCCGRxP-31" target="2pkQNexUgDLmCOCCGRxP-27">
          <mxGeometry relative="1" as="geometry">
            <mxPoint x="650" y="226" as="targetPoint" />
          </mxGeometry>
        </mxCell>
        <mxCell id="2pkQNexUgDLmCOCCGRxP-40" value="Solicita internação do paciente em outra unidade()" style="html=1;verticalAlign=bottom;endArrow=block;entryX=0;entryY=0;strokeColor=#000000;strokeWidth=1;fontSize=12;" edge="1" parent="2pkQNexUgDLmCOCCGRxP-1" target="2pkQNexUgDLmCOCCGRxP-29">
          <mxGeometry relative="1" as="geometry">
            <mxPoint x="325" y="260" as="sourcePoint" />
          </mxGeometry>
        </mxCell>
        <mxCell id="2pkQNexUgDLmCOCCGRxP-41" value="" style="html=1;verticalAlign=bottom;endArrow=open;dashed=1;endSize=8;exitX=0;exitY=0.95;strokeColor=#000000;strokeWidth=1;fontSize=12;" edge="1" parent="2pkQNexUgDLmCOCCGRxP-1" source="2pkQNexUgDLmCOCCGRxP-29">
          <mxGeometry relative="1" as="geometry">
            <mxPoint x="325" y="336" as="targetPoint" />
          </mxGeometry>
        </mxCell>
        <mxCell id="2pkQNexUgDLmCOCCGRxP-42" value="Paciente internado()" style="html=1;verticalAlign=bottom;endArrow=block;entryX=0;entryY=0;strokeColor=#000000;strokeWidth=1;fontSize=12;" edge="1" parent="2pkQNexUgDLmCOCCGRxP-1" target="2pkQNexUgDLmCOCCGRxP-32">
          <mxGeometry relative="1" as="geometry">
            <mxPoint x="640" y="270" as="sourcePoint" />
          </mxGeometry>
        </mxCell>
        <mxCell id="2pkQNexUgDLmCOCCGRxP-43" value="" style="html=1;verticalAlign=bottom;endArrow=open;dashed=1;endSize=8;strokeColor=#000000;strokeWidth=1;fontSize=12;entryX=1;entryY=0.888;entryDx=0;entryDy=0;entryPerimeter=0;" edge="1" parent="2pkQNexUgDLmCOCCGRxP-1" source="2pkQNexUgDLmCOCCGRxP-32" target="2pkQNexUgDLmCOCCGRxP-29">
          <mxGeometry relative="1" as="geometry">
            <mxPoint x="640" y="346" as="targetPoint" />
          </mxGeometry>
        </mxCell>
      </root>
    </mxGraphModel>
  </diagram>
  <diagram id="eQ-yxOWHwY8nf2eC7JtB" name="Page-4">
    <mxGraphModel dx="868" dy="450" grid="1" gridSize="10" guides="1" tooltips="1" connect="1" arrows="1" fold="1" page="1" pageScale="1" pageWidth="827" pageHeight="1169" math="0" shadow="0">
      <root>
        <mxCell id="l2IF_m2ReZjCbwmqap9I-0" />
        <mxCell id="l2IF_m2ReZjCbwmqap9I-1" parent="l2IF_m2ReZjCbwmqap9I-0" />
        <mxCell id="l2IF_m2ReZjCbwmqap9I-2" value="DIAGRAMA DE SEQUENCIA: AGENDAR MEDICAÇÂO" style="text;align=center;fontStyle=1;verticalAlign=middle;spacingLeft=3;spacingRight=3;strokeColor=none;rotatable=0;points=[[0,0.5],[1,0.5]];portConstraint=eastwest;fontSize=12;" vertex="1" parent="l2IF_m2ReZjCbwmqap9I-1">
          <mxGeometry width="820" height="26" as="geometry" />
        </mxCell>
        <mxCell id="l2IF_m2ReZjCbwmqap9I-3" value="&lt;div&gt;&lt;span&gt;ENFERMEIRO&lt;/span&gt;&lt;/div&gt;" style="shape=umlLifeline;participant=umlActor;perimeter=lifelinePerimeter;whiteSpace=wrap;html=1;container=1;collapsible=0;recursiveResize=0;verticalAlign=top;spacingTop=36;outlineConnect=0;fontSize=12;align=center;" vertex="1" parent="l2IF_m2ReZjCbwmqap9I-1">
          <mxGeometry x="70" y="60" width="20" height="360" as="geometry" />
        </mxCell>
        <mxCell id="l2IF_m2ReZjCbwmqap9I-4" value="" style="html=1;points=[];perimeter=orthogonalPerimeter;fontSize=12;align=center;" vertex="1" parent="l2IF_m2ReZjCbwmqap9I-3">
          <mxGeometry x="5" y="60" width="10" height="240" as="geometry" />
        </mxCell>
        <mxCell id="l2IF_m2ReZjCbwmqap9I-5" value="Agendamento medicação" style="shape=umlLifeline;perimeter=lifelinePerimeter;whiteSpace=wrap;html=1;container=1;collapsible=0;recursiveResize=0;outlineConnect=0;fontSize=12;align=center;" vertex="1" parent="l2IF_m2ReZjCbwmqap9I-1">
          <mxGeometry x="270" y="60" width="100" height="360" as="geometry" />
        </mxCell>
        <mxCell id="l2IF_m2ReZjCbwmqap9I-6" value="Solicitação de reserva" style="shape=umlLifeline;perimeter=lifelinePerimeter;whiteSpace=wrap;html=1;container=1;collapsible=0;recursiveResize=0;outlineConnect=0;fontSize=12;align=center;" vertex="1" parent="l2IF_m2ReZjCbwmqap9I-1">
          <mxGeometry x="590" y="60" width="100" height="360" as="geometry" />
        </mxCell>
        <mxCell id="l2IF_m2ReZjCbwmqap9I-7" value="" style="html=1;points=[];perimeter=orthogonalPerimeter;fontSize=12;align=center;" vertex="1" parent="l2IF_m2ReZjCbwmqap9I-6">
          <mxGeometry x="45" y="80" width="10" height="80" as="geometry" />
        </mxCell>
        <mxCell id="l2IF_m2ReZjCbwmqap9I-8" value="" style="html=1;points=[];perimeter=orthogonalPerimeter;fontSize=12;align=center;" vertex="1" parent="l2IF_m2ReZjCbwmqap9I-6">
          <mxGeometry x="45" y="200" width="10" height="80" as="geometry" />
        </mxCell>
        <mxCell id="l2IF_m2ReZjCbwmqap9I-9" value="Estoque farmácia" style="shape=umlLifeline;perimeter=lifelinePerimeter;whiteSpace=wrap;html=1;container=1;collapsible=0;recursiveResize=0;outlineConnect=0;fontSize=12;align=center;" vertex="1" parent="l2IF_m2ReZjCbwmqap9I-1">
          <mxGeometry x="910" y="60" width="100" height="360" as="geometry" />
        </mxCell>
        <mxCell id="l2IF_m2ReZjCbwmqap9I-10" value="" style="html=1;points=[];perimeter=orthogonalPerimeter;fontSize=12;align=center;" vertex="1" parent="l2IF_m2ReZjCbwmqap9I-9">
          <mxGeometry x="45" y="90" width="10" height="60" as="geometry" />
        </mxCell>
        <mxCell id="l2IF_m2ReZjCbwmqap9I-11" value="" style="html=1;points=[];perimeter=orthogonalPerimeter;fontSize=12;align=center;" vertex="1" parent="l2IF_m2ReZjCbwmqap9I-9">
          <mxGeometry x="45" y="210" width="10" height="60" as="geometry" />
        </mxCell>
        <mxCell id="l2IF_m2ReZjCbwmqap9I-12" value="" style="html=1;points=[];perimeter=orthogonalPerimeter;fontSize=12;align=center;" vertex="1" parent="l2IF_m2ReZjCbwmqap9I-1">
          <mxGeometry x="315" y="120" width="10" height="240" as="geometry" />
        </mxCell>
        <mxCell id="l2IF_m2ReZjCbwmqap9I-13" value="Incluir dados medicamento()" style="html=1;verticalAlign=bottom;endArrow=block;entryX=0;entryY=0;strokeColor=#000000;strokeWidth=1;fontSize=12;" edge="1" parent="l2IF_m2ReZjCbwmqap9I-1" target="l2IF_m2ReZjCbwmqap9I-12">
          <mxGeometry relative="1" as="geometry">
            <mxPoint x="90" y="120" as="sourcePoint" />
          </mxGeometry>
        </mxCell>
        <mxCell id="l2IF_m2ReZjCbwmqap9I-14" value="" style="html=1;verticalAlign=bottom;endArrow=open;dashed=1;endSize=8;exitX=0;exitY=0.95;strokeColor=#000000;strokeWidth=1;fontSize=12;entryX=1;entryY=0.958;entryDx=0;entryDy=0;entryPerimeter=0;" edge="1" parent="l2IF_m2ReZjCbwmqap9I-1" source="l2IF_m2ReZjCbwmqap9I-12" target="l2IF_m2ReZjCbwmqap9I-4">
          <mxGeometry relative="1" as="geometry">
            <mxPoint x="90" y="196" as="targetPoint" />
          </mxGeometry>
        </mxCell>
        <mxCell id="l2IF_m2ReZjCbwmqap9I-15" value="Valida se medicação disponivel()" style="html=1;verticalAlign=bottom;endArrow=block;entryX=0;entryY=0;strokeColor=#000000;strokeWidth=1;fontSize=12;" edge="1" parent="l2IF_m2ReZjCbwmqap9I-1" target="l2IF_m2ReZjCbwmqap9I-7">
          <mxGeometry relative="1" as="geometry">
            <mxPoint x="325" y="140" as="sourcePoint" />
          </mxGeometry>
        </mxCell>
        <mxCell id="l2IF_m2ReZjCbwmqap9I-16" value="" style="html=1;verticalAlign=bottom;endArrow=open;dashed=1;endSize=8;exitX=0;exitY=0.95;strokeColor=#000000;strokeWidth=1;fontSize=12;" edge="1" parent="l2IF_m2ReZjCbwmqap9I-1" source="l2IF_m2ReZjCbwmqap9I-7">
          <mxGeometry relative="1" as="geometry">
            <mxPoint x="325" y="216" as="targetPoint" />
          </mxGeometry>
        </mxCell>
        <mxCell id="l2IF_m2ReZjCbwmqap9I-17" value="Checa se medicamento existe no estoque()" style="html=1;verticalAlign=bottom;endArrow=block;entryX=0;entryY=0;strokeColor=#000000;strokeWidth=1;fontSize=12;" edge="1" parent="l2IF_m2ReZjCbwmqap9I-1" target="l2IF_m2ReZjCbwmqap9I-10">
          <mxGeometry relative="1" as="geometry">
            <mxPoint x="650" y="150" as="sourcePoint" />
          </mxGeometry>
        </mxCell>
        <mxCell id="l2IF_m2ReZjCbwmqap9I-18" value="Medicação não disponível()" style="html=1;verticalAlign=bottom;endArrow=open;dashed=1;endSize=8;exitX=0;exitY=0.95;strokeColor=#000000;strokeWidth=1;fontSize=12;" edge="1" parent="l2IF_m2ReZjCbwmqap9I-1" source="l2IF_m2ReZjCbwmqap9I-10" target="l2IF_m2ReZjCbwmqap9I-6">
          <mxGeometry relative="1" as="geometry">
            <mxPoint x="650" y="226" as="targetPoint" />
          </mxGeometry>
        </mxCell>
        <mxCell id="l2IF_m2ReZjCbwmqap9I-19" value="Solicita reposição da medicação()" style="html=1;verticalAlign=bottom;endArrow=block;entryX=0;entryY=0;strokeColor=#000000;strokeWidth=1;fontSize=12;" edge="1" parent="l2IF_m2ReZjCbwmqap9I-1" target="l2IF_m2ReZjCbwmqap9I-8">
          <mxGeometry relative="1" as="geometry">
            <mxPoint x="325" y="260" as="sourcePoint" />
          </mxGeometry>
        </mxCell>
        <mxCell id="l2IF_m2ReZjCbwmqap9I-20" value="" style="html=1;verticalAlign=bottom;endArrow=open;dashed=1;endSize=8;exitX=0;exitY=0.95;strokeColor=#000000;strokeWidth=1;fontSize=12;" edge="1" parent="l2IF_m2ReZjCbwmqap9I-1" source="l2IF_m2ReZjCbwmqap9I-8">
          <mxGeometry relative="1" as="geometry">
            <mxPoint x="325" y="336" as="targetPoint" />
          </mxGeometry>
        </mxCell>
        <mxCell id="l2IF_m2ReZjCbwmqap9I-21" value="Insere agendamento da medicação" style="html=1;verticalAlign=bottom;endArrow=block;entryX=0;entryY=0;strokeColor=#000000;strokeWidth=1;fontSize=12;" edge="1" parent="l2IF_m2ReZjCbwmqap9I-1" target="l2IF_m2ReZjCbwmqap9I-11">
          <mxGeometry relative="1" as="geometry">
            <mxPoint x="640" y="270" as="sourcePoint" />
          </mxGeometry>
        </mxCell>
        <mxCell id="l2IF_m2ReZjCbwmqap9I-22" value="" style="html=1;verticalAlign=bottom;endArrow=open;dashed=1;endSize=8;strokeColor=#000000;strokeWidth=1;fontSize=12;entryX=1;entryY=0.888;entryDx=0;entryDy=0;entryPerimeter=0;" edge="1" parent="l2IF_m2ReZjCbwmqap9I-1" source="l2IF_m2ReZjCbwmqap9I-11" target="l2IF_m2ReZjCbwmqap9I-8">
          <mxGeometry relative="1" as="geometry">
            <mxPoint x="640" y="346" as="targetPoint" />
          </mxGeometry>
        </mxCell>
      </root>
    </mxGraphModel>
  </diagram>
  <diagram id="5E520rgOxWTw4wXhYuzn" name="Page-5">
    <mxGraphModel dx="868" dy="450" grid="1" gridSize="10" guides="1" tooltips="1" connect="1" arrows="1" fold="1" page="1" pageScale="1" pageWidth="827" pageHeight="1169" math="0" shadow="0">
      <root>
        <mxCell id="W6IbWmLAx6LdykrJJUCI-0" />
        <mxCell id="W6IbWmLAx6LdykrJJUCI-1" parent="W6IbWmLAx6LdykrJJUCI-0" />
        <mxCell id="W6IbWmLAx6LdykrJJUCI-3" value="CONTRATOS DE OPERAÇÂO" style="shape=partialRectangle;html=1;top=1;align=center;dashed=1;fontSize=12;" vertex="1" parent="W6IbWmLAx6LdykrJJUCI-1">
          <mxGeometry y="20" width="800" height="20" as="geometry" />
        </mxCell>
        <mxCell id="W6IbWmLAx6LdykrJJUCI-4" value="iniciarCadastro&lt;br&gt;OPERAÇAO: iniciarCadastro()&lt;br&gt;REFERENCIAS CRUZADAS: Caso de uso: buscarPaciente.&lt;br&gt;PRE-CONDICOES: Enfermeiro estar logado no sistema.&lt;br&gt;POS-CONDICAO: Paciente cadastrado e gerado um ID." style="text;whiteSpace=wrap;html=1;fontSize=12;" vertex="1" parent="W6IbWmLAx6LdykrJJUCI-1">
          <mxGeometry x="40" y="80" width="550" height="60" as="geometry" />
        </mxCell>
        <mxCell id="W6IbWmLAx6LdykrJJUCI-5" value="iniciarInternaçao&lt;br&gt;OPERAÇAO: iniciarInternação()&lt;br&gt;REFERENCIAS CRUZADAS: Caso de uso: buscarPaciente.&lt;br&gt;PRE-CONDICOES: Quarto de UTI disponivel.&lt;br&gt;POS-CONDICAO: Paciente internado na UTI." style="text;whiteSpace=wrap;html=1;fontSize=12;" vertex="1" parent="W6IbWmLAx6LdykrJJUCI-1">
          <mxGeometry x="40" y="200" width="550" height="60" as="geometry" />
        </mxCell>
        <mxCell id="W6IbWmLAx6LdykrJJUCI-6" value="iniciarAgendamento&lt;br&gt;OPERAÇAO: iniciarAngendamento()&lt;br&gt;REFERENCIAS CRUZADAS: Caso de uso: buscarPaciente.&lt;br&gt;PRE-CONDICOES: Disponibilidade da medicação.&lt;br&gt;POS-CONDICAO: Agendamento da medicação realizado com sucesso." style="text;whiteSpace=wrap;html=1;fontSize=12;" vertex="1" parent="W6IbWmLAx6LdykrJJUCI-1">
          <mxGeometry x="40" y="320" width="550" height="60" as="geometry" />
        </mxCell>
      </root>
    </mxGraphModel>
  </diagram>
</mxfile>
